<svg class="nav-logo-svg" xmlns="http://www.w3.org/2000/svg" xmlns:xlink="http://www.w3.org/1999/xlink" viewBox="0 0 1191 488" overflow="visible">
  <defs>
    <path id="a" d="M0 0h1190.551v487.559H0z"></path>
  </defs>
  <clipPath id="b">
    <use xlink:href="#a" overflow="visible"></use>
  </clipPath>
  <path clip-path="url(#b)" fill="#FFF" d="M165.313 242.155c0-45.825 36.919-82.105 82.421-82.105 37.236 0 66.197 20.685 77.979 53.783H298.97c-9.221-19.414-27.045-29.597-51.236-29.597-32.773 0-57.277 25.139-57.277 57.919 0 32.782 24.504 57.918 57.277 57.918 23.875 0 42.015-8.909 51.236-29.278h26.743c-11.782 32.779-40.743 53.465-77.979 53.465-45.502 0-82.421-36.278-82.421-82.105M506.769 253.93H371.198c2.237 28.96 28.012 46.464 57.926 46.464 20.367 0 37.55-7.004 47.099-19.73h26.092c-11.774 27.053-40.734 43.596-73.514 43.596-47.101 0-83.379-33.094-83.379-79.876 0-6.365.639-11.141.955-12.729h135.255c-4.137-30.234-27.057-47.735-54.102-47.735-23.552 0-42.006 10.82-51.239 29.916h-26.09c11.774-31.511 41.688-53.784 77.968-53.784 43.916 0 79.239 38.505 79.239 82.105 0 4.136-.314 10.18-.639 11.773M536.033 253.612v-90.06h24.504v89.74c0 29.916 18.141 47.74 47.425 47.74 29.274 0 47.412-17.824 47.412-47.74v-89.74h24.507v90.06c0 43.921-31.188 70.648-71.919 70.648-41.06 0-71.929-26.727-71.929-70.648M709.776 306.76v-27.373c21.962 16.234 44.557 21.645 65.564 21.645 18.455 0 38.821-3.184 38.821-23.551 0-16.231-17.185-22.277-42.328-24.824-34.044-3.499-62.058-14.319-62.058-46.778 0-34.691 31.511-45.827 63.014-45.827 15.596 0 36.276 2.226 52.19 12.726v25.144c-15.271-9.547-32.457-14.642-52.19-14.642-22.281 0-36.282 6.051-36.282 22.28 0 16.23 15.282 21.32 36.606 23.547 35.322 3.503 65.236 11.776 65.236 49.328 0 29.916-28.328 46.144-65.561 46.144-18.455-.001-44.548-4.453-63.012-17.819M1000.32 242.155c0-35.007-26.101-58.235-58.242-58.235-32.143 0-58.232 25.136-58.232 58.235 0 33.415 26.09 58.238 58.232 58.238 31.826 0 58.242-24.503 58.242-58.238m-141.621 0c0-45.825 37.235-82.105 81.152-82.105 27.057 0 49.009 12.41 60.785 28.642v-25.14h24.188v157.207h-24.188V295.62c-11.776 16.229-33.729 28.64-60.785 28.64-43.916 0-81.152-36.278-81.152-82.105"></path>
</svg>